<svg xmlns="http://www.w3.org/2000/svg" width="280" height="115" viewBox="0 0 280 115">
  <g id="Group_7" data-name="Group 7" transform="translate(-15 -90.886)">
    <rect id="Rectangle_1" data-name="Rectangle 1" width="280" height="115" transform="translate(15 90.886)" fill="#2a2847"/>
    <g id="_1c29cd08-5efb-46c1-9b4d-62f05a1ff48b" data-name="1c29cd08-5efb-46c1-9b4d-62f05a1ff48b" transform="translate(96.474 130.555)">
      <path id="Path_1" data-name="Path 1" d="M2.015,34.6h0V7.685h0a.622.622,0,0,1,.173-.461h0a.622.622,0,0,1,.461-.173H5.843a.757.757,0,0,1,.72.518h0l7.6,15.4V7.685h0a.56.56,0,0,1,.633-.633h3.77a.662.662,0,0,1,.489.173h0a.622.622,0,0,1,.173.461h0V34.6h0a.662.662,0,0,1-.173.489h0a.662.662,0,0,1-.489.173H15.4a.775.775,0,0,1-.748-.518h0l-7.57-15.4V34.6h0q0,.662-.633.662h-3.8a.622.622,0,0,1-.461-.173h0A.662.662,0,0,1,2.015,34.6Zm21.212-5.152h0V7.858h0a.738.738,0,0,1,.259-.576h0a.747.747,0,0,1,.547-.23h3.886a.781.781,0,0,1,.576.23h0a.781.781,0,0,1,.23.576h0V28.322h0a1.425,1.425,0,0,0,1.612,1.612h2.1a1.425,1.425,0,0,0,1.612-1.612h0V7.858h0a.781.781,0,0,1,.23-.576h0a.781.781,0,0,1,.576-.23h3.713a.846.846,0,0,1,.576.23h0a.781.781,0,0,1,.23.576h0V29.444h0a5.956,5.956,0,0,1-1.468,4.346h0a5.956,5.956,0,0,1-4.346,1.468H29.041a5.853,5.853,0,0,1-4.317-1.468h0A5.886,5.886,0,0,1,23.227,29.444ZM42.569,7.685v4.029h0a.662.662,0,0,0,.173.489h0a.726.726,0,0,0,.489.173h4.691V34.6h0q0,.662.633.662h4.2q.633,0,.633-.662h0V12.376h4.663a.585.585,0,0,0,.662-.662h0V7.685h0q0-.633-.662-.633H43.231a.726.726,0,0,0-.489.173h0a.622.622,0,0,0-.173.461ZM61.91,34.6h0V7.685h0a.622.622,0,0,1,.173-.461h0a.726.726,0,0,1,.489-.173h9.671A5.956,5.956,0,0,1,76.589,8.52h0a5.853,5.853,0,0,1,1.468,4.317h0v8.117h0q0,3.511-2.274,4.922h0l2.1,8.663h0q.173.72-.547.72H73.366a.641.641,0,0,1-.691-.576h0l-1.928-7.915H67.177V34.6h0a.662.662,0,0,1-.173.489h0a.726.726,0,0,1-.489.173H62.572a.726.726,0,0,1-.489-.173h0A.662.662,0,0,1,61.91,34.6Zm5.267-22.335v9.3h4a1.425,1.425,0,0,0,1.612-1.612h0V13.873h0a1.425,1.425,0,0,0-1.612-1.612h-4Zm14.88-4.576V34.6h0a.585.585,0,0,0,.662.662h4.173a.662.662,0,0,0,.489-.173h0a.662.662,0,0,0,.173-.489h0V7.685h0a.622.622,0,0,0-.173-.461h0a.662.662,0,0,0-.489-.173H82.72q-.662,0-.662.633Zm9.5,26.911h0V7.685h0a.622.622,0,0,1,.173-.461h0a.622.622,0,0,1,.461-.173h14.823q.662,0,.662.633h0v4.029h0q0,.691-.662.691H97.053v6.217h7.57q.662,0,.662.691h0v3.972h0q0,.691-.662.691h-7.57v5.958h9.959a.727.727,0,0,1,.518.144h0a.678.678,0,0,1,.144.489h0V34.6h0a.585.585,0,0,1-.662.662H92.189a.622.622,0,0,1-.461-.173h0A.662.662,0,0,1,91.556,34.6Zm20.09,0h0V7.685h0a.576.576,0,0,1,.2-.461h0a.622.622,0,0,1,.461-.173H115.5a.757.757,0,0,1,.72.518h0l7.57,15.4V7.685h0q0-.633.662-.633h3.77a.622.622,0,0,1,.461.173h0a.576.576,0,0,1,.2.461h0V34.6h0a.609.609,0,0,1-.2.489h0a.622.622,0,0,1-.461.173h-3.195a.757.757,0,0,1-.72-.518h0l-7.57-15.4V34.6h0q0,.662-.633.662h-3.8a.622.622,0,0,1-.461-.173h0A.609.609,0,0,1,111.646,34.6ZM132.081,7.685v4.029h0a.662.662,0,0,0,.173.489h0a.662.662,0,0,0,.489.173h4.663V34.6h0a.585.585,0,0,0,.662.662h4.173q.633,0,.633-.662h0V12.376h4.691a.585.585,0,0,0,.662-.662h0V7.685h0q0-.633-.662-.633H132.743a.662.662,0,0,0-.489.173h0a.622.622,0,0,0-.173.461Zm19.342,21.759h0V26.825h0a.56.56,0,0,1,.633-.633h4.087q.662,0,.662.633h0v1.7h0a1.425,1.425,0,0,0,1.612,1.612h2.159a1.425,1.425,0,0,0,1.612-1.612h0V24.465L152.516,21.3h0a1.417,1.417,0,0,1-1.094-1.468h0V12.837h0a5.845,5.845,0,0,1,1.5-4.317h0a5.914,5.914,0,0,1,4.317-1.468h4.519a5.853,5.853,0,0,1,4.317,1.468h0a5.853,5.853,0,0,1,1.468,4.317h0v2.677h0a.56.56,0,0,1-.633.633H162.82a.622.622,0,0,1-.461-.173h0a.622.622,0,0,1-.173-.461h0v-1.7h0a1.412,1.412,0,0,0-1.612-1.583h-2.216a1.661,1.661,0,0,0-1.18.4h0a1.536,1.536,0,0,0-.432,1.18h0v3.454l9.757,3.108h0a1.456,1.456,0,0,1,1.036,1.5h0v7.57h0a5.956,5.956,0,0,1-1.468,4.346h0a5.853,5.853,0,0,1-4.317,1.468h-4.519a5.845,5.845,0,0,1-4.317-1.5h0A5.785,5.785,0,0,1,151.423,29.444Z" transform="translate(-1.015 -3.052)" fill="#fff"/>
    </g>
    <g id="_4710763e-4cc1-449b-a1e4-acd3ce16d434" data-name="4710763e-4cc1-449b-a1e4-acd3ce16d434" transform="translate(40 127.731)">
      <path id="Path_2" data-name="Path 2" d="M20.737,5.591V18.663H5.893a16.572,16.572,0,0,1,.747-2.517l-1.289-.5a17.916,17.916,0,0,0-.972,3.6.691.691,0,0,0,.682.8H21.428a.691.691,0,0,0,.691-.691V4.856a.69.69,0,0,0-.718-.691,18,18,0,0,0-3.594.507l.331,1.342a16.566,16.566,0,0,1,2.6-.424Zm3.456,18.6H39.34a.692.692,0,0,0,.689-.636c.042-.525.062-1,.062-1.438a17.816,17.816,0,0,0-3.6-10.784l-1.106.83a16.44,16.44,0,0,1,3.319,9.954c0,.221-.006.449-.017.691H24.884V5.764a16.508,16.508,0,0,1,3.211.879l.5-1.289a17.874,17.874,0,0,0-4.318-1.073.69.69,0,0,0-.774.686V23.5A.691.691,0,0,0,24.193,24.193ZM16.816,37.839l-.442,1.311a17.917,17.917,0,0,0,5.027.923h.027a.691.691,0,0,0,.692-.691V22.119a.691.691,0,0,0-.691-.691H4.839a.691.691,0,0,0-.691.691,18.11,18.11,0,0,0,.229,2.876l1.365-.22a16.556,16.556,0,0,1-.2-1.964H20.737V38.648a16.524,16.524,0,0,1-3.921-.809Zm7.377,2.123a.665.665,0,0,0,.082,0,18,18,0,0,0,2.157-.393L26.1,38.223c-.4.1-.808.183-1.217.252V26.958h13.1q-.072.236-.151.471l1.31.442c.16-.476.3-.959.419-1.438a.692.692,0,0,0-.67-.857h-14.7a.691.691,0,0,0-.691.691v13A.691.691,0,0,0,24.193,39.963Z" transform="translate(-1.382 -0.547)" fill="#9d74ff"/>
      <path id="Path_3" data-name="Path 3" d="M7.6,15.207a6.2,6.2,0,0,0,1.719-.247,5.537,5.537,0,0,0,3.3,2.186h0a5.5,5.5,0,0,0,4.8-1.2h0a5.519,5.519,0,0,0-.283-8.614h0a5.48,5.48,0,0,0-3.313-1.109,5.146,5.146,0,0,0-.636.043A6.254,6.254,0,0,0,9.921,3.217a5.538,5.538,0,0,1,2.072-1.376L11.508.547A6.913,6.913,0,0,0,8.9,2.289a6.6,6.6,0,0,0-.45.54A6.218,6.218,0,1,0,7.6,15.207Zm3.042-.8a6.263,6.263,0,0,0,2.426-2.457l-.809,3.641a4.17,4.17,0,0,1-1.617-1.185Zm2.967,1.486.587-2.642,1.76,2.053a4.132,4.132,0,0,1-2.347.589Zm3.4-1.49-1.68-1.961h2.586a4.139,4.139,0,0,1-.906,1.961Zm.906-3.343H15.207L16.829,8.9a4.086,4.086,0,0,1,1.085,2.162ZM13.666,7.607a4.015,4.015,0,0,1,2.057.46l-.6.805-1.208,1.611-.2-.354h0c.035-.185.063-.373.08-.563a5.824,5.824,0,0,0-.009-1.255c0-.032-.01-.064-.015-.1q-.037-.305-.105-.606ZM7.6,4.147l.055,0a7.033,7.033,0,0,0-.5,1.62l1.36.248a5.63,5.63,0,0,1,.572-1.637,4.855,4.855,0,0,1,3.174,3.3l.013.052c.032.12.061.241.084.362.01.053.017.107.025.16.014.09.028.18.037.27.014.149.023.3.023.455A4.839,4.839,0,1,1,7.6,4.147Zm19.354,9.677H28.34v1.382H26.958Zm2.765,1.382h1.382V16.59H29.723Zm2.765,4.839H33.87v1.382H32.488Zm-5.53-.691H28.34v1.382H26.958Zm-.691-2.765h1.382v1.382H26.267Zm9.677.691h1.382v1.382H35.944Zm-3.456-2.765H33.87V15.9H32.488Zm-2.765,3.456h1.382v1.382H29.723Zm2.765-.691H33.87v1.382H32.488Zm-.736-7.413a12.626,12.626,0,0,0-.646,3.957h1.382a10.912,10.912,0,0,1,.4-2.893,2.688,2.688,0,0,0,1.324.345c1.322,0,2.232-1.558,2.332-1.736a.7.7,0,0,0,0-.675A3.707,3.707,0,0,0,34.695,7.2a11.587,11.587,0,0,1,1.417-1.611,2.44,2.44,0,0,0,2.251,1.326c1.322,0,2.232-1.558,2.332-1.736a.7.7,0,0,0,0-.675,4.637,4.637,0,0,0-.969-1.17,9.158,9.158,0,0,1,3.131-.565V1.382A10.911,10.911,0,0,0,37.8,2.657a2.76,2.76,0,0,0-.567-.85c-.939-.939-2.671-.453-2.866-.4a.693.693,0,0,0-.463.462c-.058.194-.544,1.926.4,2.866a2.859,2.859,0,0,0,.346.287A12.888,12.888,0,0,0,33.4,6.567a2.786,2.786,0,0,0-.318-.4,3.422,3.422,0,0,0-2.8-.559.694.694,0,0,0-.53.495c-.093.341-.512,2.085.4,3a2.611,2.611,0,0,0,1.6.764Zm2.464-1.357c.267,0,.631.339.9.691-.269.352-.634.691-.9.691a1.284,1.284,0,0,1-.869-.317c.143-.344.3-.678.478-1.005a1.358,1.358,0,0,1,.391-.061Zm4.147-4.364c.267,0,.631.339.9.691-.269.352-.634.691-.9.691-.552,0-1.037-.323-1.038-.652l.012-.082a.676.676,0,0,0-.009-.2c.151-.106.3-.207.459-.3A1.317,1.317,0,0,1,38.363,4.147Zm-3.09-.385a1.512,1.512,0,0,1-.132-1.109,1.525,1.525,0,0,1,1.109.131,1.336,1.336,0,0,1,.345.59q-.459.314-.889.672a1.286,1.286,0,0,1-.433-.283ZM30.994,6.916a1.663,1.663,0,0,1,1.109.233,1.2,1.2,0,0,1,.382.9c0,.012,0,.024,0,.035-.055.109-.1.222-.154.332a.694.694,0,0,0-.117.037,1.046,1.046,0,0,1-1.09-.326,1.763,1.763,0,0,1-.131-1.21ZM4.147,37.326A2.766,2.766,0,0,0,6.511,36L7.63,38.233,8.3,42.278a.691.691,0,0,0,.682.578h5.53a.691.691,0,0,0,.691-.691v-4.09l.682-4.091a.705.705,0,0,0,.01-.114c1.906,0,3.456-1.24,3.456-2.765a2.854,2.854,0,0,0-2.22-2.576,2.7,2.7,0,0,0,.147-.88,2.759,2.759,0,0,0-4.908-1.736,2.761,2.761,0,0,0-1.921-.269,3.415,3.415,0,0,0-2.157-.76A3.46,3.46,0,0,0,4.839,28.34a2.768,2.768,0,0,0-2.765,2.765,2.728,2.728,0,0,0,.335,1.315,2.759,2.759,0,0,0,1.739,4.906ZM3.672,33.27A.691.691,0,0,0,3.9,32.115a1.364,1.364,0,0,1-.447-1.009,1.384,1.384,0,0,1,1.382-1.382,1.337,1.337,0,0,1,.457.091.693.693,0,0,0,.926-.65V28.34a2.076,2.076,0,0,1,2.074-2.074,2.054,2.054,0,0,1,1.488.635.689.689,0,0,0,.758.16,1.371,1.371,0,0,1,1.53.344.691.691,0,0,0,1.156-.232,1.377,1.377,0,1,1,2.307,1.4.693.693,0,0,0,.483,1.157c1.078.042,1.957.658,1.957,1.372,0,.749-.95,1.382-2.074,1.382a2.673,2.673,0,0,1-.551-.065.691.691,0,0,0-.832.677v.714L13.834,37.9a.691.691,0,0,0-.01.113v3.456H9.571L8.977,37.9a.705.705,0,0,0-.064-.2L6.84,33.561a.693.693,0,0,0-.619-.382H6.083a.691.691,0,0,0-.648.93,1.312,1.312,0,0,1,.1.452A1.382,1.382,0,1,1,3.672,33.27Zm34.519-4.93h-.724a4.651,4.651,0,0,0-4.642,4.2l-.3,2.988-1.4.84-.223-.223a.688.688,0,0,0-.489-.2h-.346a2.42,2.42,0,0,0-.324,4.817,2.42,2.42,0,0,0,4.817-.324v-.346a.689.689,0,0,0-.2-.489l-.223-.223.838-1.4,3.64-.331a4.665,4.665,0,0,0-.422-9.312Zm-5.012,12.1a1.037,1.037,0,1,1-2.074,0v-.346a.691.691,0,0,0-.691-.691h-.346a1.037,1.037,0,1,1,0-2.074h.059l.4.4a.691.691,0,0,0,.845.1l1.7-1.018.31.31.31.31-1.018,1.7a.692.692,0,0,0,.1.845l.4.4v.059Zm5.309-4.162-3.667.333-.922-.922.3-3.008a3.272,3.272,0,0,1,3.266-2.956h.724a3.283,3.283,0,0,1,.3,6.552Z" transform="translate(-1.382 -0.547)" fill="#9d74ff"/>
      <path id="Path_4" data-name="Path 4" d="M6.865,8.739a2.932,2.932,0,0,0,1.18.245,3.133,3.133,0,0,0,2.393-1.127L9.377,6.972A1.631,1.631,0,0,1,6.451,6l-1.381.062a3.072,3.072,0,0,0,1.8,2.676ZM36.225,31.564a2.512,2.512,0,0,0-.972,1.921l1.382.036a1.142,1.142,0,0,1,.411-.844,1.128,1.128,0,0,1,1.282.021l.762-1.154a2.512,2.512,0,0,0-2.865.02Zm-25.856,3v2.765h1.382V34.562c0-.832.2-2.765,2.074-2.765V30.414a3.15,3.15,0,0,0-3.053,2.023A4.71,4.71,0,0,0,7.6,31.105v1.382C8.81,32.488,10.368,33.494,10.368,34.562Z" transform="translate(-1.382 -0.547)" fill="#9d74ff"/>
    </g>
  </g>
</svg>